<svg xmlns="http://www.w3.org/2000/svg" xmlns:xlink="http://www.w3.org/1999/xlink" width="168.586" height="138.279" viewBox="0 0 168.586 138.279">
  <defs>
    <linearGradient id="linear-gradient" x1="0.289" y1="0.975" x2="0.711" y2="0.025" gradientUnits="objectBoundingBox">
      <stop offset="0" stop-color="#71f5ff"/>
      <stop offset="0.322" stop-color="#b888c7"/>
      <stop offset="1" stop-color="#ff1a8f"/>
    </linearGradient>
  </defs>
  <g id="Layer_x0020_1" transform="translate(0)">
    <g id="_2118000399984" transform="translate(0)">
      <path id="Path_10431" data-name="Path 10431" d="M285.8,2070l-3.924,12.927h5.714L293.24,2064H288.1a4.614,4.614,0,0,0-1.9.462,5.837,5.837,0,0,0-1.616,1.27l-3.636,4.559-.808-4.329a2.023,2.023,0,0,0-.346-.808,7.509,7.509,0,0,0-.693-.635,3.52,3.52,0,0,0-.808-.4,5.039,5.039,0,0,0-.923-.115h-5.656L266,2082.93h5.6l3.982-13.158,1.731,9h1.212Z" transform="translate(-250.648 -1944.882)" fill="#012d49"/>
      <path id="_1" data-name="1" d="M685.024,2078.89v4.04h5.252V2064h-5.483a3.112,3.112,0,0,0-.635.058,4.378,4.378,0,0,0-1.1.4,9.452,9.452,0,0,0-1.385,1.1,10.755,10.755,0,0,0-1.5,2.02L671,2082.93h5.944l2.251-4.04Zm-3.867-3.405,3.982-7.156v7.156Z" transform="translate(-632.275 -1944.882)" fill="#012d49"/>
      <path id="_2" data-name="2" d="M1036,2081.807h6.926a32.71,32.71,0,0,0,3.751-.173,7.768,7.768,0,0,0,2.366-.635,5.684,5.684,0,0,0,2.251-1.962,12.114,12.114,0,0,0,1.385-2.886,5.5,5.5,0,0,0,.346-2.308,2.753,2.753,0,0,0-.519-1.789,3.123,3.123,0,0,0-1.789-1.212,13.712,13.712,0,0,0-3.521-.4h-1.558a1.122,1.122,0,0,1-.462-.058.833.833,0,0,1-.4-.115,1.259,1.259,0,0,1-.693-.635,1.923,1.923,0,0,1,.115-1.1,1.829,1.829,0,0,1,.923-.808,5.654,5.654,0,0,1,1.558-.346h8.137l1.1-4.559h-9.292a11.456,11.456,0,0,0-3.693.4,7.8,7.8,0,0,0-2.6,1.27,8.743,8.743,0,0,0-1.962,2.135c-.519.808-1.1,1.731-1.674,2.828,0,.115,0,.173.115.231a.519.519,0,0,0,.289-.058.179.179,0,0,0,.115-.058,4.974,4.974,0,0,1,.981-.866,6.5,6.5,0,0,1,1.27-.635,4.571,4.571,0,0,0-.289,1.443,5.009,5.009,0,0,0,.058,1.327,3.731,3.731,0,0,0,.346,1.212,5.553,5.553,0,0,0,.4,1.039,1.228,1.228,0,0,0,.635.693,5.339,5.339,0,0,0,1.154.462,8.313,8.313,0,0,0,1.385.289,14.116,14.116,0,0,0,1.558.115,11.091,11.091,0,0,0,1.385.058,5.94,5.94,0,0,0,1.1-.058,2.557,2.557,0,0,1,.693.577,1.211,1.211,0,0,1,0,.923,1.263,1.263,0,0,1-.693.75,3.729,3.729,0,0,1-1.212.346,11.264,11.264,0,0,1-1.443.115H1037.1Z" transform="translate(-976.21 -1943.759)" fill="#012d49"/>
      <path id="_3" data-name="3" d="M1382.961,2065.271v-.693a3.475,3.475,0,0,0-1.27-2.078,5.133,5.133,0,0,0-2.078-1.1,11.7,11.7,0,0,0-2.482-.346c-.866-.058-1.674-.058-2.424-.058a18.846,18.846,0,0,0-3.867.346,11.946,11.946,0,0,0-2.655.866,6.52,6.52,0,0,0-1.616,1.212,4.354,4.354,0,0,0-.866,1.328c-.346.75-.635,1.558-.981,2.481-.289.866-.635,1.789-.866,2.712a22.6,22.6,0,0,0-.75,2.828,24.232,24.232,0,0,0-.462,2.712,5.3,5.3,0,0,0,.173,1.962,3.659,3.659,0,0,0,.923,1.327,4.068,4.068,0,0,0,1.385.866,7.955,7.955,0,0,0,1.674.462c.635.115,1.212.173,1.847.231h1.847c.75,0,1.558,0,2.366-.058.75-.115,1.558-.173,2.366-.346a6.909,6.909,0,0,0,2.712-1.1,5.971,5.971,0,0,0,1.847-2.309,42.407,42.407,0,0,0,1.962-5.54A47.871,47.871,0,0,0,1382.961,2065.271Zm-8.657,9.7a1.5,1.5,0,0,1-.519.924,4.333,4.333,0,0,1-1.039.462,3.719,3.719,0,0,1-1.154.173,8.151,8.151,0,0,1-1.1.058,5.266,5.266,0,0,1-.981-.058,2,2,0,0,1-.693-.4,1.385,1.385,0,0,1-.4-.692,2.164,2.164,0,0,1,0-.866c.346-1.443.693-2.886,1.154-4.271.4-1.385.923-2.77,1.385-4.1a1.549,1.549,0,0,1,.577-.75,2.08,2.08,0,0,1,.866-.462,4.877,4.877,0,0,1,.981-.231,5.268,5.268,0,0,1,.923-.058,5.605,5.605,0,0,1,.923.058,4.877,4.877,0,0,1,.981.231,1.575,1.575,0,0,1,.693.52,1.141,1.141,0,0,1,.115.923,39.608,39.608,0,0,1-1.1,4.328C1375.459,2072.138,1374.939,2073.524,1374.3,2074.966Z" transform="translate(-1283.985 -1942.055)" fill="#012d49"/>
      <path id="_4" data-name="4" d="M1719.961,2065.271v-.693a3.475,3.475,0,0,0-1.27-2.078,5.134,5.134,0,0,0-2.078-1.1,11.7,11.7,0,0,0-2.482-.346c-.866-.058-1.674-.058-2.424-.058a18.459,18.459,0,0,0-3.867.346,11.02,11.02,0,0,0-2.655.866,8.39,8.39,0,0,0-1.674,1.212,5.459,5.459,0,0,0-.808,1.328c-.346.75-.635,1.558-.981,2.481-.346.866-.635,1.789-.923,2.712-.231.924-.519,1.847-.693,2.828a15.686,15.686,0,0,0-.462,2.712,5.3,5.3,0,0,0,.173,1.962,4.4,4.4,0,0,0,.866,1.327,5.624,5.624,0,0,0,1.385.866,8.487,8.487,0,0,0,1.731.462c.635.115,1.212.173,1.847.231h1.789c.808,0,1.616,0,2.366-.058.808-.115,1.616-.173,2.424-.346a6.909,6.909,0,0,0,2.712-1.1,5.971,5.971,0,0,0,1.847-2.309,42.39,42.39,0,0,0,1.962-5.54A47.871,47.871,0,0,0,1719.961,2065.271Zm-8.657,9.7a1.5,1.5,0,0,1-.519.924,4.333,4.333,0,0,1-1.039.462,3.835,3.835,0,0,1-1.212.173,7.34,7.34,0,0,1-1.1.058,4.654,4.654,0,0,1-.923-.058,2,2,0,0,1-.693-.4,1.384,1.384,0,0,1-.4-.692,2.164,2.164,0,0,1,0-.866,35.84,35.84,0,0,1,1.154-4.271c.4-1.385.866-2.77,1.385-4.1a1.275,1.275,0,0,1,.577-.75,2.08,2.08,0,0,1,.866-.462,5.388,5.388,0,0,1,.923-.231,7.858,7.858,0,0,1,1.9,0,6.024,6.024,0,0,1,.981.231,1.575,1.575,0,0,1,.693.52,1.141,1.141,0,0,1,.115.923,40.023,40.023,0,0,1-1.154,4.328C1712.459,2072.138,1711.882,2073.524,1711.3,2074.966Z" transform="translate(-1601.536 -1942.055)" fill="#012d49"/>
      <path id="_5" data-name="5" d="M2038.14,2065.962a2.025,2.025,0,0,0-.346-.808,6.567,6.567,0,0,0-.635-.635,3.973,3.973,0,0,0-.866-.4,4.477,4.477,0,0,0-.923-.115h-5.656L2024,2082.93h5.656l3.924-13.158,2.655,13.158h6.752l5.656-18.93h-5.425l-3.347,10.965Z" transform="translate(-1907.19 -1944.882)" fill="#012d49"/>
      <path id="Path_10432" data-name="Path 10432" d="M124.6,50.614c.635.462,1.558.808,2.424,1.385,2.366,1.616,4.5,4.328,4.328,7.676-.173,4.906-4.963,8.888-6.752,8.83ZM4.155,138.279a35.421,35.421,0,0,0,2.02-5.252c3.694-12.639,17.833-24.239,29.664-28.683a76.269,76.269,0,0,1,11.485-3,67.456,67.456,0,0,1,6.868-.519c4.04-.346,23.547-.115,29.145-.115,2.424,0,14.313-.75,16.91-1.327,1.962-.462,4.386-.173,6.406-.75a32.3,32.3,0,0,1,3.405-.4c2.078-.462,4.271-.635,6.233-.981l14.832-3.405c1.1-.346,1.962-.346,3.059-.693,1.9-.519,3.694-1.1,5.483-1.731,1.385-.519,3.924-1.443,5.194-2.02,3.347-1.616,6.695-3,9.811-4.906.462-.289.75-.4,1.1-.635,2.02-1.212,5.944-3.694,7.445-5.54.75-.923,1.1-.577,1.847-1.731l2.366-3a7.2,7.2,0,0,0,1.154-4.675c-1.962-1.5-2.135-1.385-4.79-.923a8.953,8.953,0,0,0-2.251,1.039c-.866.4-1.385.635-2.251,1.039l-2.251.981c-2.424.75-4.559,1.962-7.156,2.712-4.328,1.327-4.271,1.731-9.984,3.116a120.142,120.142,0,0,1-29.087,3.52c-4.213,0-8.368-.346-12.408-.75l-8.253-1.674c-2.886-.75-8.137-2.77-10.446-4.963a11.964,11.964,0,0,1-3.174-4.213,14.258,14.258,0,0,1-.577-5.887c.231-2.77,2.02-5.6,3.578-7.849.231-.231.577-.635.808-.923a27.316,27.316,0,0,1,3.116-3.52l2.309-2.482a11.082,11.082,0,0,0,.866-.808,3.514,3.514,0,0,0,.693-.866c.635-.923,2.77-2.943,3.751-4.617l1.327-1.9c3.751-6.233,6.695-12.87,3.751-20.372a14.312,14.312,0,0,0-.981-2.193c-1.962-3.116-4.559-3.347-5.944-1.039-.866,1.385-1.5,2.943-2.366,4.386a57.872,57.872,0,0,1-5.252,7.676,53.967,53.967,0,0,1-14.37,11.889L53.845,46.574c-.462.115-.75.231-1.154.346l-3.578,1.443A72.727,72.727,0,0,0,37.8,53.384l-9.984,6.348c-1.443.981-2.539,1.962-3.751,2.943l-5.136,4.617a73.629,73.629,0,0,0-7.5,8.888A49.365,49.365,0,0,0,5.6,86.742c-.346.693-.693,1.5-1.039,2.193A33.54,33.54,0,0,0,2.828,93.9L1.443,98.977C.057,103.421-1.9,138.394,4.155,138.279ZM114.617,36.994a10.353,10.353,0,0,1-4.559-2.886c-3.867-4.559-1.212-12.235,4.559-13.736Zm0-27.7c-5.829,1.616-8.08,2.655-11.658,6.348a19.054,19.054,0,0,0-5.136,12.754c0,8.541,3.232,13.5,9.984,16.852a28.514,28.514,0,0,0,6.81,2.193V68.62c-3.924-1.385-7.329-5.771-7.907-10.85L96.091,60.021c.115,3.29,2.886,8.541,4.386,10.677a21.635,21.635,0,0,0,8.368,6.925c5.194,2.308,7.791,1.674,13.562,1.674a14.787,14.787,0,0,0,6.291-1.385,26.462,26.462,0,0,0,4.848-2.77c6.521-4.617,9.984-13.274,7.5-21.123a20.237,20.237,0,0,0-2.482-5.136c-4.848-7.041-12.581-8.253-13.851-9.061L124.6,20.488c2.02,0,5.656,4.559,6.752,7.329.866,0,9.7-2.02,10.1-2.251,0-2.424-2.539-6.406-3.982-8.253-4.848-6.406-12.235-7.445-12.87-7.849V0h-9.984Z" transform="translate(0)" fill-rule="evenodd" fill="url(#linear-gradient)"/>
    </g>
  </g>
</svg>
